<?xml version="1.0" encoding="iso-8859-1"?>
<!-- Uploaded to: SVG Repo, www.svgrepo.com, Generator: SVG Repo Mixer Tools -->
<!DOCTYPE svg PUBLIC "-//W3C//DTD SVG 1.1//EN" "http://www.w3.org/Graphics/SVG/1.1/DTD/svg11.dtd">
<svg fill="#000000" version="1.1" id="Capa_1" xmlns="http://www.w3.org/2000/svg" xmlns:xlink="http://www.w3.org/1999/xlink" 
	 width="800px" height="800px" viewBox="0 0 91.828 91.828"
	 xml:space="preserve">
<g>
	<g>
		<path d="M60.332,60.497h8.917c0.829,0,1.5-0.671,1.5-1.5V50.08c0-0.829-0.671-1.5-1.5-1.5h-8.917c-0.829,0-1.5,0.671-1.5,1.5
			v8.917C58.832,59.825,59.502,60.497,60.332,60.497z"/>
		<path d="M60.332,41.622h8.917c0.829,0,1.5-0.671,1.5-1.5v-8.917c0-0.829-0.671-1.5-1.5-1.5h-8.917c-0.829,0-1.5,0.671-1.5,1.5
			v8.917C58.832,40.95,59.502,41.622,60.332,41.622z"/>
		<path d="M60.332,22.747h8.917c0.829,0,1.5-0.671,1.5-1.5V12.33c0-0.829-0.671-1.5-1.5-1.5h-8.917c-0.829,0-1.5,0.671-1.5,1.5
			v8.917C58.832,22.076,59.502,22.747,60.332,22.747z"/>
		<path d="M41.457,41.622h8.917c0.829,0,1.5-0.671,1.5-1.5v-8.917c0-0.829-0.671-1.5-1.5-1.5h-8.917c-0.829,0-1.5,0.671-1.5,1.5
			v8.917C39.957,40.95,40.627,41.622,41.457,41.622z"/>
		<path d="M41.457,22.747h8.917c0.829,0,1.5-0.671,1.5-1.5V12.33c0-0.829-0.671-1.5-1.5-1.5h-8.917c-0.829,0-1.5,0.671-1.5,1.5
			v8.917C39.957,22.076,40.627,22.747,41.457,22.747z"/>
		<path d="M22.582,60.497h8.917c0.829,0,1.5-0.671,1.5-1.5V50.08c0-0.829-0.671-1.5-1.5-1.5h-8.917c-0.829,0-1.5,0.671-1.5,1.5
			v8.917C21.082,59.825,21.752,60.497,22.582,60.497z"/>
		<path d="M41.457,60.497h8.917c0.829,0,1.5-0.671,1.5-1.5V50.08c0-0.829-0.671-1.5-1.5-1.5h-8.917c-0.829,0-1.5,0.671-1.5,1.5
			v8.917C39.957,59.825,40.627,60.497,41.457,60.497z"/>
		<path d="M22.582,41.622h8.917c0.829,0,1.5-0.671,1.5-1.5v-8.917c0-0.829-0.671-1.5-1.5-1.5h-8.917c-0.829,0-1.5,0.671-1.5,1.5
			v8.917C21.082,40.95,21.752,41.622,22.582,41.622z"/>
		<path d="M22.582,22.747h8.917c0.829,0,1.5-0.671,1.5-1.5V12.33c0-0.829-0.671-1.5-1.5-1.5h-8.917c-0.829,0-1.5,0.671-1.5,1.5
			v8.917C21.082,22.076,21.752,22.747,22.582,22.747z"/>
		<path d="M78.957,0H12.873c-1.104,0-2,0.896-2,2v87.828c0,1.104,0.896,2,2,2h19.375c1.104,0,2-0.896,2-2V73.914h23.333v15.914
			c0,1.104,0.896,2,2,2h19.375c1.104,0,2-0.896,2-2V2C80.957,0.895,80.06,0,78.957,0z M74.957,85.828H63.582V73.914v-6h-6H34.248h-6
			v6v11.914H16.873V6h58.084V85.828z"/>
	</g>
</g>
</svg>